<?xml version="1.0" encoding="UTF-8"?>
<svg width="20px" height="20px" viewBox="0 0 20 20" version="1.1" xmlns="http://www.w3.org/2000/svg" xmlns:xlink="http://www.w3.org/1999/xlink">
    <!-- Generator: Sketch 62 (91390) - https://sketch.com -->
    <title>insert_comment-24px</title>
    <desc>Created with Sketch.</desc>
    <g id="Customer-Service" stroke="none" stroke-width="1" fill="none" fill-rule="evenodd">
        <g id="고객센터_Home" transform="translate(-368.000000, -643.000000)">
            <g id="insert_comment-24px" transform="translate(366.000000, 641.000000)">
                <polygon id="Path" points="0 0 24 0 24 24 0 24"></polygon>
                <path d="M20,4 L20,17.17 L18.83,16 L4,16 L4,4 L20,4 M20,2 L4,2 C2.9,2 2,2.9 2,4 L2,16 C2,17.1 2.9,18 4,18 L18,18 L22,22 L22,4 C22,2.9 21.1,2 20,2 Z M18,12 L6,12 L6,14 L18,14 L18,12 Z M18,9 L6,9 L6,11 L18,11 L18,9 Z M18,6 L6,6 L6,8 L18,8 L18,6 Z" id="Shape" fill="#606060" fill-rule="nonzero"></path>
            </g>
        </g>
    </g>
</svg>