<?xml version="1.0" encoding="UTF-8"?>
<svg width="20px" height="20px" viewBox="0 0 20 20" version="1.1" xmlns="http://www.w3.org/2000/svg" xmlns:xlink="http://www.w3.org/1999/xlink">
    <!-- Generator: Sketch 62 (91390) - https://sketch.com -->
    <title>Icon / icon-phone</title>
    <desc>Created with Sketch.</desc>
    <g id="Customer-Service" stroke="none" stroke-width="1" fill="none" fill-rule="evenodd">
        <g id="고객센터_Home" transform="translate(-368.000000, -382.000000)">
            <g id="Icon-/-icon-phone" transform="translate(366.000000, 380.000000)">
                <polygon id="Shape" points="0 0 24 0 24 24 0 24"></polygon>
                <path d="M19.1111111,21 C14.6616013,21 10.6338426,19.196945 7.71844877,16.2815512 C4.80305499,13.3661574 3,9.33839869 3,4.88888889 C3,4.36944444 3.21142334,3.89658532 3.55400433,3.55400433 C3.89658532,3.21142334 4.36944444,3 4.88888889,3 L8,3 C8.51944444,3 8.99230357,3.21142334 9.33488456,3.55400433 C9.67746555,3.89658532 9.88888889,4.36944444 9.88888889,4.88888889 C9.88888889,6.0732407 10.1125083,7.20167122 10.5212589,8.2341945 L8.40430781,11.0164731 C9.47961821,12.8880556 11.0357851,14.4502528 12.8988675,15.5446967 L14.6402978,13.8032664 C16.8013878,13.9136975 17.9409484,14.12 19.1111111,14.12 C19.6305556,14.12 20.1034147,14.3314233 20.4459957,14.6740043 C20.7885767,15.0165853 21,15.4894444 21,16.0088889 L21,19.1111111 C21,19.6305556 20.7885767,20.1034147 20.4459957,20.4459957 C20.1034147,20.7885767 19.6305556,21 19.1111111,21 Z" id="Shape" stroke="#606060" stroke-width="2"></path>
            </g>
        </g>
    </g>
</svg>